# xmcd
#
# Track frame offsets: 
#        165
#        15603
#        39360
#        59686
#        92169
#        113580
#
# Disc length: 1877 seconds
#
# Revision: 0
# Processed by: cddbd v1.5.2PL0 Copyright (c) Steve Scherf et al.
# Submitted via: ExactAudioCopy v0.99pb5
#
DISCID=44075306
DTITLE=Kelly Joe Phelps - Beggar큦 Oiler
DYEAR=2002
DGENRE=Blues
TTITLE0=Beggar큦 Oil (album version)
TTITLE1=Tommy (band arrangement)
TTITLE2=Don Quixote큦 Windmill
TTITLE3=Frankenstein Party  of Three: Your Table is ready
TTITLE4=Beggar큦 Oil (band arrangement)
TTITLE5=Lass Of Loch Royal (i provve false to three)
EXTD=
EXTT0=
EXTT1=
EXTT2=
EXTT3=
EXTT4=
EXTT5=
PLAYORDER=
